# xmcd CD database file
#
# Track frame offsets:
#	150
#	15813
#	31826
#	45140
#	63429
#	73112
#	85565
#	101009
#	110362
#	116611
#	127715
#	145498
#	164092
#	179388
#	188621
#	211271
#	226127
#	241125
#	254529
#
# Disc length: 3545 seconds
#
# Revision: 0
# Processed by: cddbd v1.4PL0 Copyright (c) Steve Scherf et al.
# Submitted via: CDex 1.50beta9
#
DISCID=ef0dd713
DTITLE=Helmut Jasbar - The world is a guitar
DYEAR=2003
DGENRE=Jazz
TTITLE0=Roundelay No.1
TTITLE1=Canarios
TTITLE2=Melancholy Galliard
TTITLE3=A Fancy
TTITLE4=Farben aus meinem Garten, Teil 1: Flüstern um Morgenblau
TTITLE5=Improvisation über eine Romanze
TTITLE6=Romanze
TTITLE7=Tento I
TTITLE8=Tento II
TTITLE9=Tento III
TTITLE10=No, I've never been to Africa
TTITLE11=Bagatelle Nr. 1
TTITLE12=Bagatelle Nr. 2
TTITLE13=Bagatelle Nr. 3
TTITLE14=Time after time
TTITLE15=Farben aus meinem Garten, Teil 2: Mohn und Indigo
TTITLE16="Tres piezas espagnolas", Zapateado
TTITLE17=Dancers in Love
TTITLE18=Farben aus meinem Garten, Teil 3: Silber und Schatten
EXTD=YEAR: 2003
EXTT0=
EXTT1=
EXTT2=
EXTT3=
EXTT4=
EXTT5=
EXTT6=
EXTT7=
EXTT8=
EXTT9=
EXTT10=
EXTT11=
EXTT12=
EXTT13=
EXTT14=
EXTT15=
EXTT16=
EXTT17=
EXTT18=
PLAYORDER=
